<?xml version="1.0" encoding="UTF-8"?>
<svg id="Layer_1" xmlns="http://www.w3.org/2000/svg" version="1.1" xmlns:xlink="http://www.w3.org/1999/xlink" viewBox="0 0 263.97 200">
  <!-- Generator: Adobe Illustrator 29.5.0, SVG Export Plug-In . SVG Version: 2.1.0 Build 137)  -->
  <defs>
    <style>
      .st0 {
        fill: #fff;
      }

      .st1 {
        fill: url(#New_Gradient_Swatch_1);
      }
    </style>
    <linearGradient id="New_Gradient_Swatch_1" data-name="New Gradient Swatch 1" x1="122.98" y1="-37.35" x2="122.98" y2="121.53" gradientTransform="translate(5.35 50.03) rotate(-4.63)" gradientUnits="userSpaceOnUse">
      <stop offset="0" stop-color="#3f4ea0"/>
      <stop offset=".51" stop-color="#5fc9e7"/>
      <stop offset="1" stop-color="#3f4ea0"/>
    </linearGradient>
  </defs>
  <g>
    <g>
      <path class="st0" d="M11.91,181.26h0c-3.95-.88-4.24-1.58-4.24-2.63,0-2.46,2.31-2.82,3.68-2.82s3.3.29,5.2.79c1.16.31,2.34-.35,2.69-1.5.18-.58.12-1.19-.17-1.73-.29-.53-.76-.91-1.34-1.08-2.01-.58-4.32-.91-6.31-.91-5,0-8.36,2.95-8.36,7.34s2.74,5.83,7.15,6.8l.63.14c3.24.71,5.23,1.25,5.23,3.32,0,2.66-2.89,2.95-4.13,2.95-1.84,0-4.01-.42-6.12-1.17-.58-.21-1.21-.17-1.76.1-.55.27-.97.77-1.16,1.36-.36,1.17.27,2.42,1.44,2.83,2.46.87,5.2,1.37,7.52,1.37,5.31,0,8.74-3,8.74-7.63,0-5.15-3.92-6.46-8.66-7.54Z"/>
      <path class="st0" d="M40.24,171.77h-16.11c-1.23,0-2.23,1-2.23,2.23s1,2.23,2.23,2.23h5.81v17.47c0,1.24,1.01,2.25,2.25,2.25s2.25-1.01,2.25-2.25v-17.47h5.81c1.23,0,2.23-1,2.23-2.23s-1-2.23-2.23-2.23Z"/>
      <path class="st0" d="M60.03,171.52c-1.49,0-4.31.13-5.86.21-1.23.06-2.19,1.08-2.19,2.31v19.66c0,1.24,1.01,2.25,2.25,2.25s2.25-1.01,2.25-2.25v-5.16h3.56c5.48,0,9.16-3.41,9.16-8.5s-3.68-8.53-9.16-8.53ZM64.73,180.08c0,2.45-1.76,4.04-4.49,4.04h-3.77v-8.04c1.25-.05,2.45-.07,3.77-.07,2.85,0,4.49,1.48,4.49,4.07Z"/>
      <path class="st0" d="M84.1,191.52h-9.11v-17.5c0-1.24-1.01-2.25-2.25-2.25s-2.25,1.01-2.25,2.25v21.93h13.6c1.22,0,2.21-.99,2.21-2.21s-.99-2.21-2.21-2.21Z"/>
      <path class="st0" d="M104.95,171.77c-1.24,0-2.25,1.01-2.25,2.25v11.99c0,3.66-2.08,5.93-5.42,5.93s-5.39-2.27-5.39-5.93v-11.99c0-1.24-1.01-2.25-2.25-2.25s-2.25,1.01-2.25,2.25v11.99c0,6.23,3.97,10.42,9.88,10.42s9.91-4.09,9.91-10.42v-11.99c0-1.24-1.01-2.25-2.25-2.25Z"/>
      <path class="st0" d="M170.69,172.82l-5.89,9.54-5.86-9.53c-.82-1.35-3.05-1.3-3.83.07-.4.71-.38,1.55.04,2.24l7.41,12.15v6.4c0,1.24,1.01,2.25,2.25,2.25s2.25-1.01,2.25-2.25v-6.4l7.4-12.17c.42-.69.44-1.53.04-2.23-.77-1.37-2.98-1.41-3.81-.08Z"/>
      <path class="st0" d="M213.15,171.77h-16.11c-1.23,0-2.23,1-2.23,2.23s1,2.23,2.23,2.23h5.81v17.47c0,1.24,1.01,2.25,2.25,2.25s2.25-1.01,2.25-2.25v-17.47h5.81c1.23,0,2.23-1,2.23-2.23s-1-2.23-2.23-2.23Z"/>
      <path class="st0" d="M230.8,176.23c1.23,0,2.23-1,2.23-2.23s-1-2.23-2.23-2.23h-11.96c-1.28,0-2.32,1.04-2.32,2.32v19.54c0,1.28,1.04,2.32,2.32,2.32h11.96c1.23,0,2.23-1,2.23-2.23s-1-2.23-2.23-2.23h-9.78v-5.39h8.51c1.24,0,2.25-1.01,2.25-2.24s-1.01-2.25-2.25-2.25h-8.51v-5.39h9.78Z"/>
      <path class="st0" d="M258.56,174.09c-.07-1.3-1.15-2.32-2.45-2.32-.98,0-1.87.58-2.25,1.49l-6.74,15.76-6.74-15.76c-.39-.9-1.27-1.49-2.25-1.49-1.3,0-2.38,1.02-2.45,2.32l-1.07,19.51c-.03.61.19,1.21.61,1.66.42.44,1.01.7,1.62.7,1.18,0,2.16-.93,2.22-2.11l.6-10.89,5.03,11.42c.42.96,1.37,1.58,2.43,1.58s2-.62,2.43-1.59l5.01-11.42.62,10.9c.07,1.18,1.05,2.1,2.23,2.1.61,0,1.2-.25,1.62-.7.42-.44.64-1.05.61-1.66l-1.07-19.51Z"/>
      <path class="st0" d="M117.74,181.21h0c-3.95-.88-4.24-1.58-4.24-2.63,0-2.46,2.31-2.82,3.68-2.82s3.31.29,5.2.79c1.14.3,2.34-.35,2.69-1.5.18-.58.12-1.2-.17-1.73-.29-.53-.76-.91-1.34-1.07-2.01-.58-4.31-.91-6.31-.91-5,0-8.36,2.95-8.36,7.34s2.73,5.83,7.14,6.8l.63.14c3.24.71,5.23,1.25,5.23,3.32,0,2.66-2.89,2.95-4.13,2.95-1.84,0-4.01-.42-6.12-1.17-.58-.21-1.21-.17-1.76.1-.55.27-.97.77-1.16,1.36-.36,1.17.27,2.41,1.44,2.83,2.46.87,5.2,1.37,7.51,1.37,5.31,0,8.75-3,8.75-7.63,0-5.15-3.92-6.46-8.66-7.54Z"/>
      <path class="st0" d="M145.06,181.26h0c-3.95-.88-4.24-1.58-4.24-2.63,0-2.46,2.31-2.82,3.68-2.82s3.3.29,5.2.79c1.16.31,2.34-.35,2.69-1.5.18-.58.12-1.19-.17-1.73-.29-.53-.76-.91-1.34-1.08-2.01-.58-4.32-.91-6.31-.91-5,0-8.36,2.95-8.36,7.34s2.74,5.83,7.15,6.8l.63.14c3.24.71,5.23,1.25,5.23,3.32,0,2.66-2.89,2.95-4.13,2.95-1.84,0-4.01-.42-6.12-1.17-.58-.21-1.21-.17-1.76.1-.55.27-.97.77-1.16,1.36-.36,1.17.27,2.42,1.44,2.83,2.46.87,5.2,1.37,7.52,1.37,5.31,0,8.74-3,8.74-7.63,0-5.15-3.92-6.46-8.66-7.54Z"/>
      <path class="st0" d="M184.83,181.26h0c-3.95-.88-4.24-1.58-4.24-2.63,0-2.46,2.31-2.82,3.69-2.82s3.3.29,5.2.79c1.14.3,2.34-.35,2.69-1.5.18-.58.12-1.19-.17-1.73-.29-.53-.76-.91-1.34-1.08-2.01-.58-4.31-.91-6.31-.91-5,0-8.36,2.95-8.36,7.34s2.73,5.83,7.14,6.8l.63.14c3.24.71,5.23,1.25,5.23,3.32,0,2.66-2.89,2.95-4.13,2.95-1.84,0-4.01-.42-6.12-1.17-.58-.21-1.21-.17-1.77.1-.55.27-.97.77-1.16,1.36-.36,1.17.27,2.42,1.44,2.83,2.46.87,5.2,1.37,7.51,1.37,5.31,0,8.75-3,8.75-7.63,0-5.15-3.92-6.46-8.66-7.54Z"/>
    </g>
    <g>
      <g>
        <path class="st0" d="M117.86,124.38c-5.07,0-10-1.8-13.75-5.45l-20.21-19.69c-1.75-1.71-1.79-4.51-.08-6.26,1.71-1.75,4.51-1.79,6.26-.08l20.21,19.69c4.62,4.5,12.64,3.79,17.89-1.59,2.6-2.67,4.12-6.06,4.27-9.54.14-3.29-.97-6.27-3.15-8.38l-20.21-19.69c-1.75-1.71-1.79-4.51-.08-6.26,1.71-1.75,4.5-1.79,6.26-.08l20.21,19.69c4,3.9,6.06,9.26,5.81,15.1-.24,5.65-2.65,11.1-6.77,15.33-4.65,4.77-10.74,7.21-16.64,7.21Z"/>
        <path class="st0" d="M176.07,52.61c-1.84-1.77-5.25-3.88-11.01-3.88h-25.78c-2.44,0-4.42,1.99-4.42,4.43s1.98,4.42,4.42,4.42h25.78s0,0,0,0c2.24,0,3.92.49,4.89,1.41.75.72,1.14,1.8,1.14,3.2,0,2.77-.94,4.61-5.53,4.61h-24.33s-14.31-13.93-14.31-13.93c-4-3.9-9.42-5.82-15.25-5.41-5.65.39-11.03,2.94-15.15,7.17-4.12,4.23-6.53,9.68-6.77,15.33-.25,5.84,1.81,11.21,5.81,15.1l20.21,19.69c.86.84,1.97,1.26,3.09,1.26s2.3-.45,3.17-1.34c1.71-1.75,1.67-4.55-.08-6.26l-20.21-19.69c-2.17-2.12-3.29-5.09-3.15-8.38.15-3.48,1.67-6.87,4.27-9.54,2.6-2.67,5.95-4.28,9.42-4.52,3.3-.22,6.29.81,8.46,2.93l14.54,14.17c.08.08.18.14.27.21.78,1.24,2.16,2.07,3.73,2.07h26.27c8.87,0,14.38-5.17,14.38-13.47,0-3.85-1.34-7.16-3.86-9.58Z"/>
        <path class="st0" d="M154.86,123.47c-2.44,0-4.42-1.98-4.42-4.42v-33.55c0-2.44,1.98-4.42,4.42-4.42s4.42,1.98,4.42,4.42v33.55c0,2.44-1.98,4.42-4.42,4.42Z"/>
      </g>
      <path class="st1" d="M131.15,161.52c-15.08,0-29.86-4.31-42.83-12.67-36.82-23.71-47.5-72.95-23.79-109.78,11.48-17.84,29.23-30.14,49.96-34.63,20.74-4.49,41.98-.64,59.82,10.84,2.27,1.46,4.49,3.06,6.6,4.74,1.81,1.44,2.1,4.07.66,5.88-1.44,1.81-4.07,2.1-5.88.66-1.89-1.5-3.88-2.93-5.91-4.24-15.96-10.27-34.96-13.72-53.52-9.7-18.55,4.02-34.42,15.02-44.7,30.98-21.21,32.95-11.66,77.01,21.29,98.21,15.96,10.28,34.97,13.72,53.51,9.7,18.55-4.02,34.42-15.03,44.7-30.98,9.59-14.9,13.26-32.71,10.34-50.17-.38-2.28,1.16-4.44,3.44-4.82,2.28-.38,4.44,1.16,4.82,3.44,3.26,19.51-.84,39.43-11.56,56.08-11.48,17.84-29.23,30.14-49.96,34.63-5.65,1.22-11.34,1.83-16.98,1.83Z"/>
    </g>
  </g>
  <rect class="st0" x="186.46" y="40" width="8.85" height="8.85" rx=".67" ry=".67"/>
  <rect class="st0" x="195.31" y="31.1" width="8.85" height="8.85" rx=".67" ry=".67"/>
  <rect class="st0" x="204.16" y="39.95" width="8.85" height="8.85" rx=".67" ry=".67"/>
  <rect class="st0" x="195.25" y="48.79" width="8.85" height="8.85" rx=".67" ry=".67"/>
</svg>