<?xml version="1.0" encoding="UTF-8"?>
<svg id="Layer_1" xmlns="http://www.w3.org/2000/svg" version="1.1" xmlns:xlink="http://www.w3.org/1999/xlink" viewBox="0 0 186 36">
  <!-- Generator: Adobe Illustrator 29.5.0, SVG Export Plug-In . SVG Version: 2.1.0 Build 137)  -->
  <defs>
    <style>
      .st0 {
        fill: url(#linear-gradient);
      }
    </style>
    <linearGradient id="linear-gradient" x1="3.05" y1="80.98" x2="3.05" y2="45.36" gradientTransform="translate(21.32 81.17) rotate(-4.63) scale(1 -1)" gradientUnits="userSpaceOnUse">
      <stop offset="0" stop-color="#3f4ea0"/>
      <stop offset=".51" stop-color="#5fc9e7"/>
      <stop offset="1" stop-color="#3f4ea0"/>
    </linearGradient>
  </defs>
  <g>
    <g>
      <g>
        <path d="M16.24,27.44c-1.14,0-2.24-.4-3.08-1.22l-4.53-4.41c-.39-.38-.4-1.01-.02-1.4s1.01-.4,1.4-.02l4.53,4.41c1.04,1.01,2.83.85,4.01-.36.58-.6.92-1.36.96-2.14.03-.74-.22-1.4-.7-1.88l-4.53-4.41c-.39-.38-.4-1.01-.02-1.4.38-.39,1.01-.4,1.4-.02l4.53,4.41c.9.87,1.36,2.08,1.3,3.38-.05,1.27-.59,2.49-1.52,3.44-1.04,1.07-2.41,1.61-3.73,1.61h0Z"/>
        <path d="M29.28,11.36c-.41-.4-1.18-.87-2.47-.87h-5.78c-.55,0-.99.45-.99.99s.44.99.99.99h5.78c.5,0,.88.11,1.1.32.17.16.25.4.25.72,0,.62-.21,1.03-1.24,1.03h-5.45l-3.21-3.12c-.9-.87-2.11-1.3-3.42-1.21-1.27.09-2.47.66-3.4,1.61-.92.95-1.46,2.17-1.52,3.44-.06,1.31.41,2.51,1.3,3.38l4.53,4.41c.19.19.44.28.69.28s.52-.1.71-.3c.38-.39.37-1.02-.02-1.4l-4.53-4.41c-.49-.47-.74-1.14-.7-1.88.03-.78.37-1.54.96-2.14.58-.6,1.33-.96,2.11-1.01.74-.05,1.41.18,1.9.66l3.26,3.17s.04.03.06.05c.18.28.48.46.84.46h5.89c1.99,0,3.22-1.16,3.22-3.02,0-.86-.3-1.6-.87-2.15h.01Z"/>
        <path d="M24.53,27.24c-.55,0-.99-.44-.99-.99v-7.52c0-.55.44-.99.99-.99s.99.44.99.99v7.52c0,.55-.44.99-.99.99Z"/>
      </g>
      <path class="st0" d="M19.22,35.76c-3.38,0-6.69-.97-9.6-2.84C1.37,27.61-1.03,16.57,4.29,8.32,6.86,4.32,10.84,1.57,15.48.56c4.65-1.01,9.41-.14,13.41,2.43.51.33,1.01.69,1.48,1.06.4.32.47.91.15,1.32-.32.41-.91.47-1.32.15-.42-.34-.87-.66-1.32-.95-3.58-2.3-7.84-3.07-11.99-2.17-4.16.9-7.71,3.37-10.02,6.94-4.75,7.38-2.61,17.26,4.77,22.01,3.58,2.3,7.84,3.07,11.99,2.17,4.16-.9,7.71-3.37,10.02-6.94,2.15-3.34,2.97-7.33,2.32-11.24-.09-.51.26-.99.77-1.08.51-.09.99.26,1.08.77.73,4.37-.19,8.84-2.59,12.57-2.57,4-6.55,6.75-11.2,7.76-1.27.27-2.54.41-3.81.41h0Z"/>
    </g>
    <rect x="31.61" y="8.53" width="1.98" height="1.98" rx=".67" ry=".67"/>
    <rect x="33.6" y="6.54" width="1.98" height="1.98" rx=".67" ry=".67"/>
    <rect x="35.58" y="8.52" width="1.98" height="1.98" rx=".67" ry=".67"/>
    <rect x="33.58" y="10.5" width="1.98" height="1.98" rx=".67" ry=".67"/>
  </g>
  <g>
    <path d="M49.14,16.52h0c-2.16-.48-2.32-.86-2.32-1.43,0-1.34,1.26-1.54,2.01-1.54s1.81.16,2.84.43c.63.17,1.28-.19,1.47-.82.1-.32.06-.65-.09-.94-.16-.29-.42-.5-.73-.59-1.1-.32-2.36-.5-3.45-.5-2.73,0-4.57,1.61-4.57,4.01s1.49,3.19,3.9,3.72l.34.08c1.77.39,2.86.69,2.86,1.81,0,1.45-1.58,1.61-2.26,1.61-1.01,0-2.19-.23-3.34-.64-.32-.11-.66-.1-.96.06-.3.15-.53.42-.63.74-.2.64.15,1.32.78,1.55,1.34.48,2.84.75,4.11.75,2.9,0,4.78-1.64,4.78-4.17,0-2.81-2.14-3.53-4.73-4.12h-.01Z"/>
    <path d="M64.63,11.34h-8.8c-.67,0-1.22.55-1.22,1.22s.55,1.22,1.22,1.22h3.17v9.55c0,.68.55,1.23,1.23,1.23s1.23-.55,1.23-1.23v-9.55h3.17c.67,0,1.22-.55,1.22-1.22s-.55-1.22-1.22-1.22Z"/>
    <path d="M75.44,11.2c-.81,0-2.36.07-3.2.11-.67.03-1.2.59-1.2,1.26v10.74c0,.68.55,1.23,1.23,1.23s1.23-.55,1.23-1.23v-2.82h1.95c3,0,5.01-1.87,5.01-4.64s-2.01-4.66-5.01-4.66h-.01ZM78.01,15.88c0,1.34-.96,2.21-2.45,2.21h-2.06v-4.39c.68-.03,1.34-.04,2.06-.04,1.56,0,2.45.81,2.45,2.23h0Z"/>
    <path d="M88.59,22.13h-4.98v-9.56c0-.68-.55-1.23-1.23-1.23s-1.23.55-1.23,1.23v11.98h7.43c.67,0,1.21-.54,1.21-1.21s-.54-1.21-1.21-1.21h.01Z"/>
    <path d="M99.98,11.34c-.68,0-1.23.55-1.23,1.23v6.55c0,2-1.13,3.24-2.96,3.24s-2.94-1.24-2.94-3.24v-6.55c0-.68-.55-1.23-1.23-1.23s-1.23.55-1.23,1.23v6.55c0,3.41,2.17,5.69,5.4,5.69s5.42-2.23,5.42-5.69v-6.55c0-.68-.55-1.23-1.23-1.23h0Z"/>
    <path d="M135.9,11.91l-3.22,5.21-3.2-5.21c-.45-.74-1.67-.71-2.09.04-.22.39-.21.85.02,1.23l4.05,6.64v3.5c0,.68.55,1.23,1.23,1.23s1.23-.55,1.23-1.23v-3.5l4.04-6.65c.23-.38.24-.83.02-1.22-.42-.75-1.63-.77-2.08-.04h0Z"/>
    <path d="M159.1,11.34h-8.8c-.67,0-1.22.55-1.22,1.22s.55,1.22,1.22,1.22h3.17v9.55c0,.68.55,1.23,1.23,1.23s1.23-.55,1.23-1.23v-9.55h3.17c.67,0,1.22-.55,1.22-1.22s-.55-1.22-1.22-1.22h0Z"/>
    <path d="M168.75,13.77c.67,0,1.22-.55,1.22-1.22s-.55-1.22-1.22-1.22h-6.53c-.7,0-1.27.57-1.27,1.27v10.68c0,.7.57,1.27,1.27,1.27h6.53c.67,0,1.22-.55,1.22-1.22s-.55-1.22-1.22-1.22h-5.34v-2.94h4.65c.68,0,1.23-.55,1.23-1.23s-.55-1.23-1.23-1.23h-4.65v-2.94s5.34,0,5.34,0Z"/>
    <path d="M183.91,12.6c-.04-.71-.63-1.27-1.34-1.27-.54,0-1.02.32-1.23.81l-3.68,8.61-3.68-8.61c-.21-.49-.7-.81-1.23-.81-.71,0-1.3.56-1.34,1.27l-.58,10.66c-.02.33.1.66.33.9s.55.38.89.38c.65,0,1.18-.51,1.22-1.15l.33-5.95,2.75,6.24c.23.52.75.86,1.33.86s1.1-.34,1.33-.87l2.73-6.24.34,5.95c.04.64.57,1.15,1.22,1.15.33,0,.66-.14.89-.38s.35-.57.33-.9l-.58-10.66h-.03Z"/>
    <path d="M106.97,16.5h0c-2.16-.48-2.32-.86-2.32-1.43,0-1.34,1.26-1.54,2.01-1.54s1.81.16,2.84.43c.62.17,1.28-.19,1.47-.82.1-.32.06-.65-.09-.94-.16-.29-.42-.5-.73-.59-1.1-.32-2.36-.5-3.45-.5-2.73,0-4.57,1.61-4.57,4.01s1.49,3.19,3.9,3.72l.34.08c1.77.39,2.86.69,2.86,1.81,0,1.45-1.58,1.61-2.26,1.61-1.01,0-2.19-.23-3.34-.64-.32-.12-.66-.1-.96.06-.3.15-.53.42-.63.74-.2.64.15,1.32.79,1.55,1.34.48,2.84.75,4.11.75,2.9,0,4.78-1.64,4.78-4.17,0-2.81-2.14-3.53-4.73-4.12h-.02Z"/>
    <path d="M121.89,16.52h0c-2.16-.48-2.32-.86-2.32-1.43,0-1.34,1.26-1.54,2.01-1.54s1.81.16,2.84.43c.63.17,1.28-.19,1.47-.82.1-.32.06-.65-.09-.94-.16-.29-.42-.5-.73-.59-1.1-.32-2.36-.5-3.45-.5-2.73,0-4.57,1.61-4.57,4.01s1.49,3.19,3.9,3.72l.34.08c1.77.39,2.86.69,2.86,1.81,0,1.45-1.58,1.61-2.26,1.61-1.01,0-2.19-.23-3.34-.64-.32-.11-.66-.1-.96.06-.3.15-.53.42-.63.74-.2.64.15,1.32.78,1.55,1.34.48,2.84.75,4.11.75,2.9,0,4.78-1.64,4.78-4.17,0-2.81-2.14-3.53-4.73-4.12h-.01Z"/>
    <path d="M143.63,16.52h0c-2.16-.48-2.32-.86-2.32-1.43,0-1.34,1.26-1.54,2.01-1.54s1.81.16,2.84.43c.62.17,1.28-.19,1.47-.82.1-.32.06-.65-.09-.94-.16-.29-.42-.5-.73-.59-1.1-.32-2.36-.5-3.45-.5-2.73,0-4.57,1.61-4.57,4.01s1.49,3.19,3.9,3.72l.34.08c1.77.39,2.86.69,2.86,1.81,0,1.45-1.58,1.61-2.26,1.61-1.01,0-2.19-.23-3.34-.64-.32-.12-.66-.09-.96.06s-.53.42-.63.74c-.2.64.15,1.32.78,1.55,1.34.48,2.84.75,4.11.75,2.9,0,4.78-1.64,4.78-4.17,0-2.81-2.14-3.53-4.73-4.12h0Z"/>
  </g>
</svg>